<?xml version="1.0" encoding="UTF-8" standalone="no"?>
<svg
   version="1.1"
   viewBox="0 0 512 512"
   enable-background="new 0 0 512 512"
   id="svg16"
   sodipodi:docname="down.svg"
   inkscape:version="1.2.1 (9c6d41e410, 2022-07-14)"
   xmlns:inkscape="http://www.inkscape.org/namespaces/inkscape"
   xmlns:sodipodi="http://sodipodi.sourceforge.net/DTD/sodipodi-0.dtd"
   xmlns="http://www.w3.org/2000/svg"
   xmlns:svg="http://www.w3.org/2000/svg">
  <defs
     id="defs20" />
  <sodipodi:namedview
     id="namedview18"
     pagecolor="#ffffff"
     bordercolor="#000000"
     borderopacity="0.25"
     inkscape:showpageshadow="2"
     inkscape:pageopacity="0.0"
     inkscape:pagecheckerboard="0"
     inkscape:deskcolor="#d1d1d1"
     showgrid="false"
     inkscape:zoom="1.5898438"
     inkscape:cx="256"
     inkscape:cy="256.3145"
     inkscape:window-width="1920"
     inkscape:window-height="1001"
     inkscape:window-x="-9"
     inkscape:window-y="-9"
     inkscape:window-maximized="1"
     inkscape:current-layer="svg16" />
  <g
     id="g14"
     transform="rotate(180,255.98844,255.9625)">
    <path
       d="M 184.5,460.1 H 321.8 V 237 c 0,-11.3 9.1,-20.4 20.3,-20.4 h 69.3 L 255.6,60.1 99.9,216.6 h 64.2 c 11.2,0 20.3,9.1 20.3,20.4 V 460.1 Z M 342,501 H 164.1 c -11.2,0 -20.3,-9.1 -20.3,-20.4 V 257.5 H 50.9 C 31,257.5 25.7,233.6 36.5,222.6 L 241.3,16.7 C 248.9,9 262.4,9 270,16.7 l 204.7,205.9 c 12.6,12.7 5.4,34.9 -14.4,34.9 h -98 v 223.1 c 0.1,11.3 -9,20.4 -20.3,20.4 z"
       id="path12" />
  </g>
</svg>
