<?xml version="1.0" encoding="UTF-8" standalone="no"?>
<svg
   version="1.1"
   viewBox="0 0 512 512"
   enable-background="new 0 0 512 512"
   id="svg6"
   sodipodi:docname="up_filled.svg"
   inkscape:version="1.2.1 (9c6d41e410, 2022-07-14)"
   xmlns:inkscape="http://www.inkscape.org/namespaces/inkscape"
   xmlns:sodipodi="http://sodipodi.sourceforge.net/DTD/sodipodi-0.dtd"
   xmlns="http://www.w3.org/2000/svg"
   xmlns:svg="http://www.w3.org/2000/svg">
  <defs
     id="defs10" />
  <sodipodi:namedview
     id="namedview8"
     pagecolor="#ffffff"
     bordercolor="#000000"
     borderopacity="0.25"
     inkscape:showpageshadow="2"
     inkscape:pageopacity="0.0"
     inkscape:pagecheckerboard="0"
     inkscape:deskcolor="#d1d1d1"
     showgrid="false"
     inkscape:zoom="1.1241893"
     inkscape:cx="362.9282"
     inkscape:cy="226.83013"
     inkscape:window-width="1920"
     inkscape:window-height="1001"
     inkscape:window-x="-9"
     inkscape:window-y="-9"
     inkscape:window-maximized="1"
     inkscape:current-layer="svg6" />
  <g
     id="g4">
    <path
       d="m184.5,460.1h137.3v-223.1c0-11.3 9.1-20.4 20.3-20.4h69.3l-155.8-156.5-155.7,156.5h64.2c11.2,0 20.3,9.1 20.3,20.4v223.1h0.1zm157.5,40.9h-177.9c-11.2,0-20.3-9.1-20.3-20.4v-223.1h-92.9c-19.9,0-25.2-23.9-14.4-34.9l204.8-205.9c7.6-7.7 21.1-7.7 28.7,1.06581e-14l204.7,205.9c12.6,12.7 5.4,34.9-14.4,34.9h-98v223.1c0.1,11.3-9,20.4-20.3,20.4z"
       id="path2" />
  </g>
  <rect
     style="fill:#000000"
     id="rect224"
     width="154.7782"
     height="396.73035"
     x="177.01645"
     y="88.952988" />
  <rect
     style="fill:#000000"
     id="rect226"
     width="65.825211"
     height="47.145084"
     x="224.16153"
     y="58.708973" />
  <rect
     style="fill:#000000"
     id="rect228"
     width="103.18547"
     height="96.958763"
     x="126.31325"
     y="137.87714" />
  <rect
     style="fill:#000000"
     id="rect234"
     width="332.68417"
     height="56.040382"
     x="90.732048"
     y="186.80128" />
  <rect
     style="fill:#000000"
     id="rect236"
     width="60.488033"
     height="62.267094"
     x="323.78888"
     y="134.31902" />
</svg>
